<?xml version="1.0" encoding="UTF-8"?>
<!DOCTYPE svg PUBLIC "-//W3C//DTD SVG 1.1//EN" "http://www.w3.org/Graphics/SVG/1.1/DTD/svg11.dtd">
<!-- Creator: CorelDRAW 2019 (64-Bit) -->
<svg xmlns="http://www.w3.org/2000/svg" xml:space="preserve" width="261px" height="120px" version="1.1" style="shape-rendering:geometricPrecision; text-rendering:geometricPrecision; image-rendering:optimizeQuality; fill-rule:evenodd; clip-rule:evenodd"
viewBox="0 0 844.66 387.96"
 xmlns:xlink="http://www.w3.org/1999/xlink"
 xmlns:xodm="http://www.corel.com/coreldraw/odm/2003">
 <defs>
  <style type="text/css">
   <![CDATA[
    .fil0 {fill:#E5097F;fill-rule:nonzero}
    .fil1 {fill:#00AEEF;fill-rule:nonzero}
    .fil5 {fill:url(#id0);fill-rule:nonzero}
    .fil3 {fill:url(#id1);fill-rule:nonzero}
    .fil4 {fill:url(#id2);fill-rule:nonzero}
    .fil2 {fill:url(#id3);fill-rule:nonzero}
   ]]>
  </style>
  <linearGradient id="id0" gradientUnits="userSpaceOnUse" x1="589.13" y1="296.87" x2="762.46" y2="239.13">
   <stop offset="0" style="stop-opacity:1; stop-color:#ED2A7B"/>
   <stop offset="0.501961" style="stop-opacity:1; stop-color:#DA1C5B"/>
   <stop offset="1" style="stop-opacity:1; stop-color:#9E1F62"/>
  </linearGradient>
  <linearGradient id="id1" gradientUnits="userSpaceOnUse" x1="614.22" y1="163.79" x2="860.37" y2="81.79">
   <stop offset="0" style="stop-opacity:1; stop-color:#1C75BC"/>
   <stop offset="0.501961" style="stop-opacity:1; stop-color:#00AEEF"/>
   <stop offset="1" style="stop-opacity:1; stop-color:#4FD4DF"/>
  </linearGradient>
  <linearGradient id="id2" gradientUnits="userSpaceOnUse" x1="675.99" y1="386.99" x2="708.73" y2="288.71">
   <stop offset="0" style="stop-opacity:1; stop-color:#DA1C5B"/>
   <stop offset="0.501961" style="stop-opacity:1; stop-color:#9E1F62"/>
   <stop offset="1" style="stop-opacity:1; stop-color:#9E1F62"/>
  </linearGradient>
  <linearGradient id="id3" gradientUnits="userSpaceOnUse" x1="818.9" y1="234.89" x2="634.2" y2="173.36">
   <stop offset="0" style="stop-opacity:1; stop-color:#262162"/>
   <stop offset="0.501961" style="stop-opacity:1; stop-color:#662D90"/>
   <stop offset="0.760784" style="stop-opacity:1; stop-color:#662D90"/>
   <stop offset="1" style="stop-opacity:1; stop-color:#3D2162"/>
  </linearGradient>
 </defs>
 <g id="Capa_x0020_1">
  <metadata id="CorelCorpID_0Corel-Layer"/>
  <g id="_1463238040528">
   <g>
    <path class="fil0" d="M418.23 348.83c0,-2.78 -0.03,-5.59 -0.09,-8.42 -0.05,-2.82 -0.11,-5.58 -0.17,-8.27 -0.05,-2.69 -0.11,-5.26 -0.16,-7.7 -0.06,-2.45 -0.09,-4.69 -0.09,-6.73 0,-1.26 0.03,-2.43 0.08,-3.49 0.05,-1.07 0.19,-2.04 0.43,-2.91 0.24,-0.87 0.6,-1.64 1.08,-2.31 0.48,-0.66 1.17,-1.22 2.05,-1.66 0.88,-0.45 1.98,-0.79 3.3,-1.02 1.33,-0.24 2.94,-0.35 4.85,-0.35 1.17,0 2.52,0.09 4.05,0.25 1.52,0.17 3.1,0.46 4.72,0.87 1.62,0.42 3.21,0.99 4.79,1.69 1.57,0.7 2.98,1.58 4.22,2.65 1.23,1.07 2.22,2.33 2.98,3.8 0.76,1.46 1.14,3.17 1.14,5.14 0,1.78 -0.37,3.33 -1.11,4.68 -0.76,1.34 -1.7,2.5 -2.85,3.47 -1.16,0.97 -2.43,1.77 -3.82,2.38 -1.39,0.61 -2.74,1.07 -4.03,1.39 -1.23,0.3 -2.47,0.54 -3.73,0.72 -1.26,0.19 -2.4,0.28 -3.42,0.28 -1.01,0 -1.83,-0.11 -2.45,-0.32 -0.62,-0.22 -0.92,-0.58 -0.88,-1.1 0.04,-0.48 0.18,-0.91 0.41,-1.29 0.23,-0.38 0.57,-0.58 1.03,-0.6 1.26,-0.01 2.55,-0.19 3.86,-0.51 1.3,-0.33 2.48,-0.85 3.54,-1.57 1.05,-0.72 1.92,-1.69 2.6,-2.89 0.68,-1.21 1.01,-2.7 1.01,-4.47 0,-1.15 -0.17,-2.15 -0.51,-3.01 -0.34,-0.85 -0.81,-1.57 -1.39,-2.16 -0.57,-0.6 -1.25,-1.08 -2,-1.45 -0.76,-0.37 -1.56,-0.66 -2.38,-0.86 -0.84,-0.2 -1.68,-0.34 -2.52,-0.42 -0.85,-0.07 -1.67,-0.11 -2.44,-0.11 -0.66,0 -1.2,0.13 -1.61,0.39 -0.4,0.26 -0.72,0.59 -0.95,0.97 -0.23,0.39 -0.39,0.81 -0.48,1.25 -0.08,0.45 -0.12,0.86 -0.12,1.23 0,1.9 0.05,3.84 0.14,5.79 0.09,1.94 0.18,3.91 0.28,5.91 0.1,1.99 0.2,4 0.28,6.05 0.09,2.03 0.14,4.09 0.14,6.17 0,2.59 -0.1,4.68 -0.31,6.29 -0.2,1.59 -0.53,2.82 -0.97,3.69 -0.45,0.87 -1,1.45 -1.68,1.76 -0.67,0.31 -1.49,0.46 -2.43,0.46 -0.47,0 -0.96,-0.08 -1.48,-0.24 -0.51,-0.15 -0.99,-0.39 -1.41,-0.69 -0.43,-0.31 -0.78,-0.69 -1.07,-1.14 -0.29,-0.46 -0.43,-0.98 -0.43,-1.59zm56.13 -43.8c1.73,0 3.18,0.17 4.37,0.53 1.18,0.35 2.14,0.78 2.89,1.31 0.74,0.53 1.27,1.11 1.61,1.73 0.33,0.62 0.5,1.21 0.5,1.76 0,0.6 -0.11,1.14 -0.34,1.64 -0.22,0.5 -0.52,0.93 -0.9,1.29 -0.38,0.36 -0.82,0.64 -1.32,0.84 -0.5,0.19 -1.02,0.29 -1.56,0.29 -0.87,0 -1.52,-0.21 -1.98,-0.63 -0.45,-0.41 -0.68,-0.89 -0.68,-1.42 0,-0.28 0.02,-0.52 0.08,-0.73 0.05,-0.2 0.08,-0.4 0.08,-0.61 0,-0.18 -0.04,-0.34 -0.15,-0.47 -0.1,-0.13 -0.33,-0.21 -0.68,-0.25l-0.14 0c-0.94,0 -1.9,0.14 -2.86,0.41 -0.97,0.27 -1.85,0.64 -2.63,1.11 -0.79,0.47 -1.43,1.04 -1.92,1.69 -0.49,0.66 -0.73,1.37 -0.73,2.15 0,0.97 0.2,1.81 0.6,2.52 0.4,0.72 0.89,1.34 1.48,1.88 0.59,0.54 1.23,1.01 1.92,1.43 0.68,0.43 1.32,0.81 1.92,1.19 0.59,0.37 1.09,0.74 1.49,1.1 0.4,0.36 0.59,0.75 0.59,1.17 0,0.3 -0.1,0.54 -0.3,0.73 -0.21,0.18 -0.46,0.34 -0.75,0.46 -0.3,0.12 -0.61,0.21 -0.92,0.29 -0.32,0.07 -0.58,0.13 -0.81,0.19 -0.72,0.19 -1.49,0.41 -2.31,0.66 -0.81,0.25 -1.62,0.56 -2.42,0.94 -0.81,0.38 -1.58,0.84 -2.34,1.37 -0.75,0.52 -1.41,1.16 -1.99,1.91 -0.57,0.75 -1.03,1.62 -1.37,2.61 -0.34,0.98 -0.52,2.11 -0.52,3.39 0,2.45 0.98,4.23 2.91,5.35 1.94,1.12 4.74,1.69 8.43,1.69 1.54,0 2.98,-0.23 4.34,-0.66 1.35,-0.44 2.61,-1.02 3.77,-1.75 1.15,-0.73 2.22,-1.57 3.19,-2.5 0.98,-0.94 1.85,-1.91 2.62,-2.92 0.78,-1.01 1.47,-2.01 2.05,-3.01 0.58,-1 1.07,-1.93 1.46,-2.78 0.13,-0.3 0.32,-0.55 0.58,-0.74 0.26,-0.2 0.62,-0.29 1.08,-0.29 0.28,0 0.52,0.08 0.72,0.25 0.19,0.17 0.28,0.41 0.28,0.72 0,0.13 -0.01,0.28 -0.02,0.46 -0.02,0.17 -0.08,0.39 -0.17,0.63 -0.93,2.76 -2.05,5.34 -3.37,7.76 -1.33,2.42 -2.91,4.53 -4.75,6.34 -1.83,1.8 -3.95,3.23 -6.37,4.27 -2.42,1.03 -5.18,1.55 -8.27,1.55 -2.6,0 -5.04,-0.27 -7.33,-0.8 -2.29,-0.54 -4.29,-1.36 -6.01,-2.44 -1.71,-1.08 -3.08,-2.43 -4.09,-4.04 -1,-1.62 -1.5,-3.5 -1.5,-5.65 0,-2.28 0.42,-4.29 1.24,-6.03 0.83,-1.74 1.99,-3.2 3.49,-4.4 1.5,-1.19 3.3,-2.09 5.42,-2.73 2.11,-0.64 4.45,-1 7.03,-1.08 -0.48,-0.16 -1.05,-0.39 -1.71,-0.67 -0.65,-0.29 -1.34,-0.64 -2.04,-1.05 -0.71,-0.41 -1.39,-0.87 -2.07,-1.39 -0.68,-0.52 -1.29,-1.08 -1.82,-1.71 -0.54,-0.62 -0.98,-1.29 -1.31,-2.01 -0.33,-0.72 -0.5,-1.5 -0.5,-2.34 0,-1.48 0.27,-2.78 0.8,-3.88 0.54,-1.1 1.25,-2.05 2.12,-2.82 0.87,-0.78 1.85,-1.41 2.94,-1.9 1.1,-0.49 2.19,-0.88 3.28,-1.17 1.1,-0.29 2.14,-0.49 3.14,-0.59 1,-0.11 1.85,-0.15 2.53,-0.15zm16.98 43.8c0,-2.78 -0.03,-5.59 -0.08,-8.42 -0.06,-2.82 -0.11,-5.58 -0.17,-8.27 -0.06,-2.69 -0.11,-5.26 -0.17,-7.7 -0.05,-2.45 -0.08,-4.69 -0.08,-6.73 0,-1.26 0.03,-2.43 0.07,-3.49 0.05,-1.07 0.19,-2.04 0.43,-2.91 0.24,-0.87 0.6,-1.64 1.09,-2.31 0.48,-0.66 1.16,-1.22 2.04,-1.66 0.88,-0.45 1.98,-0.79 3.31,-1.02 1.32,-0.24 2.94,-0.35 4.84,-0.35 1.17,0 2.52,0.09 4.05,0.25 1.53,0.17 3.11,0.46 4.73,0.87 1.62,0.42 3.21,0.99 4.78,1.69 1.58,0.7 2.99,1.58 4.22,2.65 1.23,1.07 2.22,2.33 2.98,3.8 0.76,1.46 1.14,3.17 1.14,5.14 0,1.18 -0.17,2.27 -0.52,3.25 -0.34,0.98 -0.8,1.88 -1.39,2.7 -0.58,0.81 -1.27,1.53 -2.04,2.17 -0.78,0.64 -1.61,1.21 -2.5,1.7 -0.88,0.49 -1.77,0.91 -2.69,1.25 -0.91,0.34 -1.8,0.63 -2.67,0.85 0.13,0.37 0.38,0.93 0.75,1.67 0.37,0.74 0.82,1.56 1.33,2.48 0.51,0.92 1.07,1.86 1.71,2.83 0.63,0.96 1.26,1.83 1.91,2.62 0.64,0.79 1.27,1.43 1.89,1.94 0.62,0.51 1.19,0.77 1.71,0.77 0.59,0 1.22,-0.27 1.88,-0.79 0.66,-0.53 1.32,-1.21 1.97,-2.04 0.64,-0.84 1.27,-1.77 1.89,-2.81 0.61,-1.04 1.17,-2.07 1.69,-3.09 0.52,-1.01 0.98,-1.97 1.39,-2.85 0.41,-0.88 0.73,-1.58 0.97,-2.12 0.13,-0.29 0.33,-0.54 0.58,-0.72 0.25,-0.19 0.61,-0.28 1.09,-0.28 0.28,0 0.52,0.07 0.71,0.23 0.2,0.16 0.29,0.4 0.29,0.72 0,0.05 0,0.12 0,0.19 0,0.07 -0.02,0.16 -0.05,0.25 -0.39,1.04 -0.85,2.25 -1.37,3.64 -0.51,1.39 -1.11,2.84 -1.78,4.34 -0.68,1.5 -1.45,2.98 -2.3,4.44 -0.85,1.47 -1.8,2.77 -2.85,3.92 -1.04,1.15 -2.2,2.08 -3.45,2.79 -1.25,0.71 -2.62,1.07 -4.11,1.07 -1.13,0 -2.23,-0.24 -3.29,-0.71 -1.06,-0.47 -2.06,-1.1 -3,-1.9 -0.95,-0.79 -1.84,-1.71 -2.68,-2.75 -0.84,-1.04 -1.62,-2.12 -2.33,-3.24 -0.7,-1.12 -1.32,-2.24 -1.87,-3.36 -0.54,-1.12 -1.02,-2.17 -1.41,-3.14 -0.38,-0.98 -0.68,-1.84 -0.88,-2.59 -0.21,-0.75 -0.31,-1.3 -0.31,-1.65 0,-0.5 0.13,-0.92 0.38,-1.28 0.25,-0.35 0.6,-0.55 1.06,-0.61 1.19,-0.13 2.4,-0.41 3.64,-0.85 1.23,-0.44 2.35,-1.04 3.36,-1.82 1.01,-0.77 1.83,-1.75 2.48,-2.9 0.65,-1.16 0.97,-2.54 0.97,-4.15 0,-1.15 -0.16,-2.15 -0.51,-3.01 -0.34,-0.85 -0.8,-1.57 -1.38,-2.16 -0.58,-0.6 -1.26,-1.08 -2,-1.45 -0.76,-0.37 -1.56,-0.66 -2.39,-0.86 -0.83,-0.2 -1.67,-0.34 -2.52,-0.42 -0.85,-0.07 -1.66,-0.11 -2.43,-0.11 -0.67,0 -1.21,0.13 -1.61,0.39 -0.4,0.26 -0.73,0.59 -0.96,0.97 -0.23,0.39 -0.39,0.81 -0.47,1.25 -0.08,0.45 -0.12,0.86 -0.12,1.23 0,1.9 0.04,3.84 0.14,5.79 0.08,1.94 0.17,3.91 0.28,5.91 0.1,1.99 0.19,4 0.27,6.05 0.1,2.03 0.14,4.09 0.14,6.17 0,2.59 -0.1,4.68 -0.3,6.29 -0.21,1.59 -0.53,2.82 -0.98,3.69 -0.44,0.87 -1,1.45 -1.67,1.76 -0.68,0.31 -1.49,0.46 -2.44,0.46 -0.46,0 -0.95,-0.08 -1.47,-0.24 -0.52,-0.15 -0.99,-0.39 -1.42,-0.69 -0.43,-0.31 -0.78,-0.69 -1.06,-1.14 -0.29,-0.46 -0.44,-0.98 -0.44,-1.59zm51.14 -17.04c0,1.69 0.04,3.31 0.14,4.87 0.11,1.57 0.33,2.96 0.67,4.17 0.34,1.21 0.83,2.19 1.46,2.91 0.62,0.72 1.47,1.08 2.52,1.08 1.58,0 2.97,-0.33 4.19,-1 1.22,-0.66 2.25,-1.5 3.09,-2.49 0.85,-0.99 1.49,-2.05 1.93,-3.17 0.45,-1.12 0.67,-2.13 0.67,-3.03 0,-1.04 0,-2.02 -0.01,-2.92 -0.01,-0.91 -0.03,-1.81 -0.06,-2.7 -0.02,-0.89 -0.05,-1.81 -0.07,-2.77 -0.02,-0.95 -0.04,-2 -0.07,-3.14 -0.02,-1.14 -0.04,-2.41 -0.05,-3.8 -0.01,-1.4 -0.02,-2.99 -0.02,-4.77 0,-1.44 0.13,-2.72 0.39,-3.82 0.26,-1.11 0.63,-2.02 1.1,-2.75 0.48,-0.74 1.05,-1.28 1.71,-1.65 0.66,-0.37 1.39,-0.56 2.16,-0.56 0.68,0 1.25,0.16 1.73,0.48 0.47,0.33 0.87,0.75 1.2,1.28 0.33,0.53 0.58,1.13 0.78,1.8 0.19,0.67 0.35,1.33 0.47,2.01 0.12,0.68 0.21,1.33 0.25,1.97 0.05,0.64 0.08,1.2 0.1,1.66 0.1,2.3 0.15,4.39 0.17,6.29 0.02,1.9 0.02,3.74 0,5.53 -0.02,1.79 -0.04,3.59 -0.06,5.42 -0.03,1.82 -0.05,3.81 -0.05,5.94 0,0.87 0.01,1.63 0.03,2.28 0.02,0.64 0.08,1.18 0.19,1.62 0.11,0.43 0.29,0.76 0.52,0.97 0.23,0.21 0.56,0.32 0.98,0.32 0.48,0 1.01,-0.24 1.59,-0.72 0.57,-0.48 1.15,-1.1 1.75,-1.86 0.59,-0.76 1.18,-1.62 1.78,-2.58 0.59,-0.95 1.14,-1.9 1.66,-2.87 0.52,-0.96 0.99,-1.88 1.41,-2.75 0.42,-0.87 0.74,-1.59 0.98,-2.17 0.13,-0.31 0.33,-0.56 0.58,-0.74 0.25,-0.17 0.61,-0.26 1.09,-0.26 0.28,0 0.52,0.08 0.71,0.23 0.2,0.16 0.29,0.4 0.29,0.72 0,0.05 0,0.12 0,0.19 0,0.08 -0.02,0.16 -0.06,0.25 -0.38,1.1 -0.86,2.36 -1.42,3.78 -0.57,1.43 -1.22,2.89 -1.95,4.4 -0.73,1.51 -1.55,3 -2.46,4.47 -0.91,1.46 -1.88,2.77 -2.93,3.92 -1.04,1.14 -2.17,2.07 -3.35,2.77 -1.19,0.71 -2.43,1.06 -3.74,1.06 -1.2,0 -2.22,-0.15 -3.04,-0.44 -0.83,-0.3 -1.52,-0.77 -2.07,-1.41 -0.54,-0.64 -0.97,-1.46 -1.28,-2.46 -0.3,-1 -0.52,-2.19 -0.65,-3.58 -0.23,0.22 -0.5,0.59 -0.85,1.11 -0.34,0.52 -0.77,1.1 -1.29,1.76 -0.52,0.66 -1.14,1.34 -1.87,2.06 -0.74,0.71 -1.6,1.36 -2.58,1.94 -0.98,0.58 -2.1,1.07 -3.36,1.45 -1.26,0.38 -2.69,0.57 -4.28,0.57 -1.65,0 -3.08,-0.31 -4.28,-0.94 -1.21,-0.63 -2.23,-1.51 -3.07,-2.61 -0.84,-1.1 -1.53,-2.4 -2.05,-3.89 -0.53,-1.49 -0.95,-3.08 -1.25,-4.79 -0.29,-1.7 -0.49,-3.48 -0.59,-5.32 -0.1,-1.85 -0.16,-3.66 -0.16,-5.46 0,-0.69 0.03,-1.56 0.08,-2.64 0.04,-1.07 0.12,-2.26 0.23,-3.55 0.11,-1.29 0.27,-2.64 0.46,-4.06 0.2,-1.43 0.45,-2.84 0.76,-4.22 0.32,-1.38 0.7,-2.69 1.13,-3.94 0.44,-1.26 0.95,-2.36 1.54,-3.31 0.58,-0.96 1.25,-1.72 2.02,-2.28 0.76,-0.57 1.62,-0.84 2.58,-0.84 0.58,0 1.08,0.08 1.51,0.25 0.43,0.16 0.78,0.47 1.07,0.92 0.29,0.46 0.5,1.09 0.64,1.88 0.14,0.8 0.21,1.82 0.21,3.06 0,1.41 -0.08,2.96 -0.25,4.65 -0.17,1.69 -0.34,3.46 -0.54,5.27 -0.19,1.82 -0.37,3.66 -0.52,5.53 -0.16,1.87 -0.24,3.68 -0.24,5.42zm13.94 -38.82c0.42,0 0.87,0.06 1.33,0.19 0.46,0.13 0.89,0.35 1.27,0.65 0.38,0.31 0.69,0.72 0.94,1.24 0.24,0.52 0.36,1.18 0.36,1.97 0,0.64 -0.16,1.23 -0.48,1.79 -0.31,0.57 -0.73,1.1 -1.24,1.59 -0.51,0.49 -1.09,0.93 -1.74,1.33 -0.65,0.4 -1.3,0.74 -1.97,1.02 -0.68,0.28 -1.34,0.49 -1.98,0.65 -0.65,0.16 -1.22,0.24 -1.7,0.24 -0.55,0 -1.02,-0.18 -1.44,-0.52 -0.41,-0.34 -0.63,-0.83 -0.63,-1.48 0,-0.35 0.06,-0.67 0.17,-0.94 0.11,-0.27 0.27,-0.54 0.47,-0.81 0.21,-0.28 0.45,-0.6 0.73,-0.94 0.27,-0.34 0.59,-0.76 0.92,-1.26 0.26,-0.39 0.53,-0.85 0.81,-1.39 0.28,-0.53 0.6,-1.05 0.97,-1.55 0.37,-0.5 0.82,-0.93 1.33,-1.27 0.51,-0.35 1.14,-0.51 1.88,-0.51z"/>
    <path class="fil1" d="M246.35 113.36c-0.61,2.94 -1.29,6.08 -2.05,9.43 -0.76,3.35 -1.68,6.67 -2.74,9.97 -1.07,3.3 -2.31,6.47 -3.73,9.51 -1.42,3.04 -3.09,5.73 -5.02,8.06 -0.51,0.61 -1.07,1.25 -1.68,1.91 -0.6,0.65 -1.26,1.24 -1.97,1.74 -0.11,0.11 -0.41,0.21 -0.92,0.31 -0.5,0.1 -0.86,0.15 -1.06,0.15l-30.74 -6.08c-0.4,-0.11 -0.76,-0.49 -1.06,-1.15 -0.31,-0.66 -0.56,-1.14 -0.76,-1.44 -1.42,-2.64 -2.52,-5.3 -3.28,-7.99 -0.76,-2.69 -1.14,-5.55 -1.14,-8.6 0,-2.84 0.23,-5.63 0.69,-8.37 0.45,-2.74 0.94,-5.47 1.44,-8.21l13.39 -68.48c-3.75,2.03 -7.12,4.52 -10.11,7.46 -3,2.94 -5.53,6.19 -7.61,9.74 -2.08,3.55 -3.68,7.35 -4.8,11.41 -1.11,4.06 -1.67,8.22 -1.67,12.48 0,4.76 0.46,9.08 1.37,12.93 0.91,3.85 2.18,8.02 3.8,12.48 0.1,0.3 0.15,0.76 0.15,1.37 0,0.81 -0.35,1.49 -1.06,2.05 -0.71,0.56 -1.47,0.84 -2.28,0.84 -0.61,0 -1.17,-0.23 -1.68,-0.69 -0.5,-0.45 -0.96,-1.04 -1.37,-1.75 -0.4,-0.71 -0.73,-1.42 -0.98,-2.13 -0.26,-0.71 -0.49,-1.32 -0.69,-1.82 -1.52,-3.86 -2.69,-7.66 -3.5,-11.41 -0.81,-3.76 -1.22,-7.76 -1.22,-12.03 0,-5.17 0.84,-10.16 2.51,-14.98 1.68,-4.82 3.99,-9.29 6.93,-13.39 2.94,-4.11 6.41,-7.79 10.42,-11.04 4.01,-3.24 8.34,-5.88 13.01,-7.91 0.41,-0.1 0.81,-0.2 1.22,-0.3 0.4,-0.1 0.81,-0.15 1.22,-0.15l22.82 0c0.61,0 1.09,0.25 1.44,0.76 0.36,0.5 0.49,1.01 0.39,1.52l-14.46 73.8c-1.12,5.37 -1.67,10.65 -1.67,15.82 0,3.05 0.2,6.04 0.61,8.98 0.4,2.94 1.11,5.88 2.12,8.83l6.24 1.21c1.83,-2.13 3.48,-4.64 4.95,-7.53 1.47,-2.89 2.74,-5.88 3.8,-8.98 1.07,-3.09 1.98,-6.24 2.74,-9.43 0.76,-3.2 1.4,-6.16 1.91,-8.9 3.34,-16.84 6.39,-33.99 9.13,-51.43 0.4,-2.34 0.76,-4.72 1.06,-7.16 0.3,-2.43 0.66,-4.82 1.07,-7.15 0.2,-1.32 0.38,-2.69 0.53,-4.11 0.15,-1.42 0.38,-2.74 0.68,-3.95 0.41,-1.42 1.27,-2.16 2.59,-2.21 1.32,-0.05 2.54,-0.07 3.65,-0.07 0.61,0 1.09,0.25 1.45,0.76 0.35,0.5 0.48,1.01 0.38,1.52l-14.46 73.8zm65.13 -33.33c-0.1,0.11 -0.15,0.31 -0.15,0.61 -0.82,4.26 -1.55,8.52 -2.21,12.78 -0.66,4.26 -0.99,8.63 -0.99,13.09 0,1.22 0.3,2.41 0.91,3.58 0.61,1.16 0.92,2.35 0.92,3.57 0,0.2 -0.08,0.51 -0.23,0.92 -0.16,0.4 -0.36,0.76 -0.61,1.06 -0.26,0.3 -0.53,0.58 -0.84,0.84 -0.3,0.25 -0.61,0.33 -0.91,0.22l-10.96 -2.58c-0.91,-0.31 -1.37,-0.91 -1.37,-1.83 0,-4.56 0.26,-9.13 0.76,-13.69 0.51,-4.57 1.22,-9.13 2.13,-13.7l-0.3 0c-4.46,10.45 -8.44,21 -11.94,31.65 -3.5,10.65 -6.67,21.51 -9.51,32.57 -0.11,0.2 -0.26,0.55 -0.46,1.06 -0.2,0.51 -0.43,1.01 -0.69,1.52 -0.25,0.51 -0.55,0.94 -0.91,1.3 -0.35,0.35 -0.68,0.48 -0.99,0.38l-17.95 -3.96c-0.92,-0.1 -1.37,-0.71 -1.37,-1.83 0,-0.2 0.02,-0.33 0.07,-0.38 0.06,-0.05 0.08,-0.17 0.08,-0.38l13.7 -65.27 -0.31 0 -11.87 32.86c-0.2,0.71 -0.63,1.22 -1.29,1.52 -0.66,0.31 -1.35,0.46 -2.06,0.46 -0.5,0 -0.93,-0.15 -1.29,-0.46 -0.36,-0.3 -0.53,-0.71 -0.53,-1.21 0,-0.21 0.3,-1.2 0.91,-2.97 0.61,-1.78 1.37,-3.96 2.28,-6.54 0.92,-2.59 1.93,-5.38 3.05,-8.37 1.11,-2.99 2.15,-5.84 3.12,-8.52 0.96,-2.69 1.82,-5.05 2.58,-7.08 0.76,-2.03 1.24,-3.35 1.45,-3.96 0.1,-0.2 0.25,-0.55 0.45,-1.06 0.21,-0.51 0.44,-1.02 0.69,-1.52 0.25,-0.51 0.53,-0.97 0.84,-1.37 0.3,-0.41 0.61,-0.56 0.91,-0.46l22.67 4.87c0.61,0.2 1.02,0.56 1.22,1.07 0.2,0.5 0.25,1.01 0.15,1.52l-3.65 17.5 0.3 0c1.12,-3.05 2.26,-6.09 3.43,-9.13 1.16,-3.05 2.36,-6.09 3.57,-9.13 0.1,-0.21 0.26,-0.56 0.46,-1.07 0.2,-0.51 0.46,-1.01 0.76,-1.52 0.3,-0.51 0.64,-0.94 0.99,-1.29 0.36,-0.36 0.68,-0.49 0.99,-0.38l12.48 2.74c1.01,0.1 1.52,0.76 1.52,1.97zm43.06 11.26c0,-1.82 -0.05,-3.65 -0.15,-5.47 -0.1,-1.83 -0.36,-3.61 -0.76,-5.33l-0.31 0c-4.36,10.45 -8.42,20.95 -12.17,31.5 -3.75,10.55 -7.1,21.3 -10.04,32.26l2.58 0.45c2.74,-3.65 5.38,-7.61 7.92,-11.87 2.53,-4.26 4.74,-8.72 6.62,-13.39 1.87,-4.66 3.39,-9.38 4.56,-14.15 1.17,-4.77 1.75,-9.43 1.75,-14zm22.67 -1.37c0,2.23 -0.05,4.52 -0.15,6.85 -0.1,2.33 -0.4,4.62 -0.91,6.85 -3.25,15.32 -9.13,29.37 -17.65,42.15 -0.81,1.11 -1.63,2.3 -2.44,3.57 -0.81,1.27 -1.67,2.41 -2.59,3.43 -0.2,0.2 -0.6,0.4 -1.21,0.61 -0.61,0.2 -1.07,0.25 -1.37,0.15l-20.39 -4.26c0,0.5 0,0.99 0,1.44 0,0.46 -0.05,0.94 -0.15,1.45 -0.11,0.91 -0.21,1.37 -0.31,1.37l-20.39 -4.26c-0.5,-0.1 -0.86,-0.36 -1.06,-0.76 -0.21,-0.41 -0.31,-0.81 -0.31,-1.22 0,-0.1 0.03,-0.2 0.08,-0.3 0.05,-0.11 0.08,-0.21 0.08,-0.31l13.54 -64.97 -0.31 0 -11.71 32.71c-0.21,0.71 -0.64,1.22 -1.3,1.52 -0.66,0.31 -1.34,0.46 -2.05,0.46 -0.51,0 -0.94,-0.15 -1.29,-0.46 -0.36,-0.3 -0.54,-0.71 -0.54,-1.21 0,-0.41 0.05,-0.71 0.15,-0.92 2.85,-7.91 5.69,-15.77 8.53,-23.58 2.84,-7.81 5.73,-15.68 8.67,-23.59l5.63 -15.52c0.4,-1.01 0.81,-2.03 1.22,-3.04 0.4,-1.01 0.76,-2.08 1.06,-3.2 0.2,-0.71 0.28,-1.62 0.23,-2.74 -0.05,-1.11 0,-2.18 0.15,-3.19 0.15,-1.01 0.46,-1.88 0.92,-2.59 0.45,-0.71 1.24,-1.06 2.35,-1.06 0.31,0 1.32,0.17 3.05,0.53 1.72,0.35 3.62,0.76 5.7,1.22 2.08,0.45 4.06,0.91 5.94,1.37 1.87,0.45 3.07,0.73 3.57,0.83 0.92,0.21 1.37,0.81 1.37,1.83 0,0.2 -0.02,0.33 -0.07,0.38 -0.05,0.05 -0.08,0.18 -0.08,0.38l-12.32 56.76 0.3 0c0.91,-2.44 1.85,-4.9 2.81,-7.38 0.97,-2.49 1.96,-4.95 2.97,-7.38 0.51,-1.12 0.91,-2.21 1.22,-3.27 0.3,-1.07 0.71,-2.16 1.22,-3.28 0.1,-0.2 0.25,-0.53 0.45,-0.98 0.21,-0.46 0.46,-0.94 0.76,-1.45 0.31,-0.51 0.64,-0.94 0.99,-1.29 0.36,-0.36 0.64,-0.54 0.84,-0.54l21 4.57c0.91,0.2 1.62,0.84 2.13,1.9 0.51,1.07 0.89,2.26 1.14,3.58 0.25,1.31 0.41,2.61 0.46,3.88 0.05,1.26 0.07,2.25 0.07,2.96zm31.04 17.2c-4.26,3.24 -7.76,7.38 -10.5,12.4 -2.73,5.02 -4.1,10.22 -4.1,15.6 0,1.82 0.02,3.67 0.07,5.55 0.05,1.88 0.28,3.73 0.69,5.55l0.3 0c2.84,-6.39 5.63,-12.78 8.37,-19.17 2.74,-6.39 5.38,-12.88 7.91,-19.48l-2.74 -0.45zm35 4.87c0,0.2 -0.3,1.19 -0.91,2.96 -0.61,1.78 -1.37,3.96 -2.28,6.55 -0.92,2.58 -1.91,5.38 -2.97,8.37 -1.07,2.99 -2.1,5.83 -3.12,8.52 -1.01,2.69 -1.88,5.04 -2.59,7.07 -0.71,2.03 -1.16,3.35 -1.37,3.96 -0.1,0.2 -0.27,0.56 -0.53,1.06 -0.25,0.51 -0.53,1.05 -0.84,1.6 -0.3,0.56 -0.6,1.02 -0.91,1.37 -0.3,0.36 -0.61,0.48 -0.91,0.38l-22.52 -4.87c-0.92,-0.1 -1.37,-0.71 -1.37,-1.82 0,-0.41 0.2,-1.47 0.61,-3.2 0.4,-1.72 0.83,-3.6 1.29,-5.63 0.46,-2.03 0.91,-3.96 1.37,-5.78 0.46,-1.83 0.79,-3.04 0.99,-3.65l-0.31 0c-1.42,3.45 -2.81,6.87 -4.18,10.27 -1.37,3.4 -2.76,6.82 -4.18,10.27 -0.11,0.2 -0.28,0.56 -0.54,1.06 -0.25,0.51 -0.53,1.02 -0.83,1.53 -0.31,0.5 -0.61,0.94 -0.92,1.29 -0.3,0.36 -0.61,0.48 -0.91,0.38l-20.39 -4.56c-0.91,-0.21 -1.65,-0.84 -2.21,-1.91 -0.55,-1.06 -0.96,-2.25 -1.21,-3.57 -0.26,-1.32 -0.44,-2.64 -0.54,-3.96 -0.1,-1.32 -0.15,-2.33 -0.15,-3.04 0,-3.45 0.43,-6.93 1.3,-10.42 0.86,-3.51 2.1,-6.88 3.72,-10.12 1.63,-3.25 3.53,-6.32 5.71,-9.21 2.18,-2.89 4.59,-5.45 7.23,-7.68 0.2,-0.21 0.61,-0.41 1.21,-0.61 0.61,-0.21 1.02,-0.26 1.22,-0.15l20.7 4.26 4.87 -21.92 -21 -4.1c-0.51,-0.11 -0.87,-0.33 -1.07,-0.69 -0.2,-0.35 -0.3,-0.79 -0.3,-1.29 0,-0.81 0.25,-1.52 0.76,-2.13 0.5,-0.61 1.21,-0.92 2.13,-0.92l0.45 0 40.78 7.92c1.02,0.2 1.53,0.81 1.53,1.82l0 0.31c0,0.1 -0.33,1.62 -0.99,4.56 -0.66,2.94 -1.5,6.62 -2.51,11.03 -1.02,4.42 -2.11,9.26 -3.28,14.54 -1.16,5.27 -2.25,10.27 -3.27,14.98 -1.01,4.72 -1.87,8.78 -2.58,12.18 -0.71,3.4 -1.17,5.45 -1.37,6.16l0.3 0 11.87 -32.87c0.2,-0.71 0.61,-1.22 1.22,-1.52 0.61,-0.3 1.27,-0.46 1.98,-0.46 1.21,0 1.82,0.56 1.82,1.68zm69.39 0c0,0.2 -0.31,1.19 -0.91,2.96 -0.61,1.78 -1.37,3.96 -2.29,6.55 -0.91,2.58 -1.9,5.38 -2.96,8.37 -1.07,2.99 -2.11,5.83 -3.12,8.52 -1.02,2.69 -1.88,5.04 -2.59,7.07 -0.71,2.03 -1.17,3.35 -1.37,3.96 -0.1,0.2 -0.25,0.56 -0.46,1.06 -0.2,0.51 -0.45,1.05 -0.76,1.6 -0.3,0.56 -0.61,1.02 -0.91,1.37 -0.3,0.36 -0.61,0.48 -0.91,0.38l-22.37 -4.87c-0.61,-0.2 -1.02,-0.55 -1.22,-1.06 -0.2,-0.51 -0.25,-1.02 -0.15,-1.52l13.09 -62.54 -0.31 0c-4.87,10.65 -9.15,21.35 -12.86,32.1 -3.7,10.76 -6.87,21.81 -9.51,33.18 -0.1,0.2 -0.25,0.55 -0.45,1.06 -0.21,0.51 -0.43,1.01 -0.69,1.52 -0.25,0.51 -0.56,0.94 -0.91,1.3 -0.36,0.35 -0.69,0.48 -0.99,0.38l-17.65 -3.96c-0.91,-0.1 -1.37,-0.71 -1.37,-1.83 0,-0.2 0.02,-0.33 0.08,-0.38 0.05,-0.05 0.07,-0.17 0.07,-0.38l13.7 -65.27 -0.31 0 -11.87 32.86c-0.2,0.71 -0.63,1.22 -1.29,1.52 -0.66,0.31 -1.34,0.46 -2.05,0.46 -0.51,0 -0.94,-0.15 -1.3,-0.46 -0.35,-0.3 -0.53,-0.71 -0.53,-1.21 0,-0.21 0.3,-1.2 0.91,-2.97 0.61,-1.78 1.37,-3.96 2.29,-6.54 0.91,-2.59 1.92,-5.38 3.04,-8.37 1.11,-2.99 2.15,-5.84 3.12,-8.52 0.96,-2.69 1.82,-5.05 2.58,-7.08 0.76,-2.03 1.25,-3.35 1.45,-3.96 0.1,-0.2 0.25,-0.55 0.46,-1.06 0.2,-0.51 0.43,-1.02 0.68,-1.52 0.25,-0.51 0.53,-0.97 0.84,-1.37 0.3,-0.41 0.61,-0.56 0.91,-0.46l22.37 4.87c0.61,0.2 1.04,0.56 1.29,1.07 0.26,0.5 0.28,1.01 0.08,1.52l-4.72 20.54 0.31 0c1.42,-3.55 2.89,-7.1 4.41,-10.65 1.52,-3.55 2.99,-7.1 4.41,-10.65 0.1,-0.31 0.26,-0.71 0.46,-1.22 0.2,-0.51 0.45,-0.99 0.76,-1.45 0.3,-0.45 0.63,-0.86 0.99,-1.21 0.35,-0.36 0.68,-0.49 0.99,-0.38l22.06 4.87c0.91,0.2 1.37,0.81 1.37,1.82 0,0.2 -0.03,0.33 -0.08,0.38 -0.05,0.05 -0.07,0.18 -0.07,0.38l-12.94 62.39 0.31 0 11.87 -32.87c0.2,-0.71 0.61,-1.22 1.22,-1.52 0.6,-0.3 1.26,-0.46 1.97,-0.46 1.22,0 1.83,0.56 1.83,1.68zm31.34 -4.87c-4.26,3.24 -7.76,7.38 -10.5,12.4 -2.73,5.02 -4.1,10.22 -4.1,15.6 0,1.82 0.02,3.67 0.07,5.55 0.05,1.88 0.28,3.73 0.69,5.55l0.3 0c2.84,-6.39 5.63,-12.78 8.37,-19.17 2.74,-6.39 5.38,-12.88 7.91,-19.48l-2.74 -0.45zm35 4.87c0,0.2 -0.3,1.19 -0.91,2.96 -0.61,1.78 -1.37,3.96 -2.28,6.55 -0.92,2.58 -1.91,5.38 -2.97,8.37 -1.07,2.99 -2.11,5.83 -3.12,8.52 -1.01,2.69 -1.88,5.04 -2.59,7.07 -0.71,2.03 -1.16,3.35 -1.37,3.96 -0.1,0.2 -0.27,0.56 -0.53,1.06 -0.25,0.51 -0.53,1.05 -0.84,1.6 -0.3,0.56 -0.6,1.02 -0.91,1.37 -0.3,0.36 -0.61,0.48 -0.91,0.38l-22.52 -4.87c-0.92,-0.1 -1.37,-0.71 -1.37,-1.82 0,-0.41 0.2,-1.47 0.61,-3.2 0.4,-1.72 0.83,-3.6 1.29,-5.63 0.46,-2.03 0.91,-3.96 1.37,-5.78 0.46,-1.83 0.79,-3.04 0.99,-3.65l-0.31 0c-1.42,3.45 -2.81,6.87 -4.18,10.27 -1.37,3.4 -2.76,6.82 -4.18,10.27 -0.11,0.2 -0.28,0.56 -0.54,1.06 -0.25,0.51 -0.53,1.02 -0.83,1.53 -0.31,0.5 -0.61,0.94 -0.92,1.29 -0.3,0.36 -0.61,0.48 -0.91,0.38l-20.39 -4.56c-0.91,-0.21 -1.65,-0.84 -2.21,-1.91 -0.55,-1.06 -0.96,-2.25 -1.21,-3.57 -0.26,-1.32 -0.44,-2.64 -0.54,-3.96 -0.1,-1.32 -0.15,-2.33 -0.15,-3.04 0,-3.45 0.43,-6.93 1.3,-10.42 0.86,-3.51 2.1,-6.88 3.72,-10.12 1.63,-3.25 3.53,-6.32 5.71,-9.21 2.18,-2.89 4.59,-5.45 7.23,-7.68 0.2,-0.21 0.61,-0.41 1.21,-0.61 0.61,-0.21 1.02,-0.26 1.22,-0.15l20.7 4.26 4.87 -21.92 -21 -4.1c-0.51,-0.11 -0.87,-0.33 -1.07,-0.69 -0.2,-0.35 -0.3,-0.79 -0.3,-1.29 0,-0.81 0.25,-1.52 0.76,-2.13 0.5,-0.61 1.21,-0.92 2.13,-0.92l0.45 0 40.78 7.92c1.02,0.2 1.53,0.81 1.53,1.82l0 0.31c0,0.1 -0.33,1.62 -0.99,4.56 -0.66,2.94 -1.5,6.62 -2.51,11.03 -1.02,4.42 -2.11,9.26 -3.28,14.54 -1.16,5.27 -2.25,10.27 -3.27,14.98 -1.01,4.72 -1.87,8.78 -2.58,12.18 -0.71,3.4 -1.17,5.45 -1.37,6.16l0.3 0 11.87 -32.87c0.2,-0.71 0.61,-1.22 1.22,-1.52 0.61,-0.3 1.27,-0.46 1.98,-0.46 1.21,0 1.82,0.56 1.82,1.68zm-513.4 80.83c0,-3.35 -0.3,-6.7 -0.91,-10.04 -0.61,-3.35 -1.57,-6.6 -2.89,-9.74l-1.37 0 -12.48 63.91 1.37 0c4.97,-6.29 8.93,-13.22 11.87,-20.77 2.94,-7.56 4.41,-15.35 4.41,-23.36zm27.55 -0.92c0,4.47 -0.46,8.83 -1.37,13.09 -1.22,6.09 -3.15,11.97 -5.79,17.65 -2.63,5.68 -6.03,10.86 -10.19,15.52 -0.61,0.71 -1.24,1.45 -1.9,2.21 -0.66,0.76 -1.35,1.39 -2.06,1.9 -0.1,0.1 -0.38,0.25 -0.83,0.46 -0.46,0.2 -0.79,0.3 -0.99,0.3l-23.29 0 -7 38.5c-0.2,1.22 -0.96,1.83 -2.28,1.83 -0.4,0 -1.72,-0.21 -3.95,-0.61 -2.24,-0.41 -4.64,-0.89 -7.23,-1.45 -2.59,-0.56 -5.07,-1.06 -7.46,-1.52 -2.38,-0.46 -3.93,-0.79 -4.64,-0.99 -0.61,-0.2 -1.11,-0.53 -1.52,-0.99 -0.41,-0.45 -0.51,-0.99 -0.3,-1.6l20.69 -103.16c-7.91,4.26 -14.15,10.01 -18.72,17.27 -4.56,7.25 -6.84,15.44 -6.84,24.57 0,4.77 0.45,9.11 1.37,13.01 0.91,3.91 2.18,8.04 3.8,12.4 0.1,0.31 0.15,0.76 0.15,1.37 0,0.81 -0.35,1.5 -1.06,2.06 -0.71,0.56 -1.47,0.83 -2.28,0.83 -0.71,0 -1.32,-0.22 -1.83,-0.68 -0.51,-0.46 -0.94,-1.04 -1.29,-1.75 -0.36,-0.71 -0.66,-1.42 -0.92,-2.13 -0.25,-0.71 -0.48,-1.32 -0.68,-1.83 -1.52,-3.85 -2.69,-7.66 -3.5,-11.41 -0.81,-3.75 -1.22,-7.76 -1.22,-12.02 0,-4.36 0.58,-8.57 1.75,-12.63 1.17,-4.06 2.81,-7.91 4.95,-11.56 2.13,-3.66 4.69,-7.05 7.68,-10.2 2.99,-3.14 6.26,-5.88 9.81,-8.22 1.32,-0.81 2.72,-1.67 4.19,-2.58 1.47,-0.92 2.97,-1.63 4.49,-2.13 0.51,-0.21 1.11,-0.33 1.82,-0.38 0.71,-0.05 1.32,-0.08 1.83,-0.08l48.24 0c0.2,0 0.45,0.1 0.76,0.3 0.3,0.21 0.56,0.36 0.76,0.46 2.53,3.55 4.31,7.41 5.32,11.57 1.02,4.15 1.53,8.36 1.53,12.62zm65.58 49.76c0,0.21 -0.31,1.19 -0.92,2.97 -0.6,1.77 -1.37,3.96 -2.28,6.54 -0.91,2.59 -1.9,5.38 -2.97,8.37 -1.06,2.99 -2.1,5.83 -3.12,8.52 -1.01,2.69 -1.87,5.05 -2.58,7.08 -0.71,2.03 -1.17,3.35 -1.37,3.95 -0.1,0.21 -0.25,0.56 -0.46,1.07 -0.2,0.51 -0.45,1.04 -0.76,1.6 -0.3,0.55 -0.61,1.01 -0.91,1.37 -0.31,0.35 -0.61,0.48 -0.91,0.38l-22.37 -4.87c-1.32,-0.41 -1.78,-1.27 -1.37,-2.59l4.11 -18.26 -0.46 0.15c-1.42,3.55 -2.84,7.08 -4.26,10.58 -1.42,3.5 -2.84,7.02 -4.26,10.57 -0.2,0.51 -0.61,1.37 -1.22,2.59 -0.61,1.22 -1.27,1.83 -1.98,1.83 -0.3,0 -1.49,-0.23 -3.57,-0.69 -2.08,-0.45 -4.42,-0.99 -7,-1.59 -2.59,-0.61 -5,-1.17 -7.23,-1.68 -2.23,-0.51 -3.65,-0.81 -4.26,-0.91 -0.61,-0.21 -1.04,-0.56 -1.29,-1.07 -0.26,-0.5 -0.28,-1.01 -0.08,-1.52l14 -66.04 -0.3 0 -12.18 34.09c-0.2,0.71 -0.63,1.21 -1.29,1.52 -0.66,0.3 -1.34,0.46 -2.05,0.46 -0.51,0 -0.94,-0.16 -1.3,-0.46 -0.35,-0.31 -0.53,-0.71 -0.53,-1.22 0,-0.2 0.3,-1.22 0.91,-3.04 0.61,-1.83 1.4,-4.06 2.36,-6.7 0.96,-2.63 2,-5.53 3.12,-8.67 1.12,-3.14 2.18,-6.11 3.2,-8.9 1.01,-2.79 1.9,-5.23 2.66,-7.3 0.76,-2.09 1.24,-3.43 1.44,-4.04 0.1,-0.2 0.26,-0.56 0.46,-1.06 0.2,-0.51 0.46,-1.02 0.76,-1.53 0.3,-0.5 0.61,-0.93 0.91,-1.29 0.31,-0.35 0.61,-0.53 0.92,-0.53l22.36 4.87c0.51,0.1 0.89,0.43 1.15,0.99 0.25,0.56 0.33,1.09 0.22,1.59l-13.99 66.2 0.3 0c9.84,-21.51 17.5,-43.83 22.98,-66.96 0.1,-0.2 0.25,-0.55 0.45,-1.06 0.21,-0.51 0.43,-0.99 0.69,-1.45 0.25,-0.45 0.53,-0.86 0.83,-1.21 0.31,-0.36 0.61,-0.49 0.92,-0.38l17.8 3.8c0.91,0.2 1.37,0.81 1.37,1.83 0,0.2 -0.03,0.33 -0.08,0.38 -0.05,0.05 -0.07,0.17 -0.07,0.38l-13.7 64.51 0.31 0 11.87 -32.86c0.2,-0.71 0.6,-1.22 1.21,-1.52 0.61,-0.31 1.27,-0.46 1.98,-0.46 1.22,0 1.83,0.56 1.83,1.67zm43.97 -20.69c0,-1.83 -0.05,-3.65 -0.15,-5.48 -0.1,-1.82 -0.35,-3.6 -0.76,-5.33l-0.31 0c-4.36,10.45 -8.41,20.95 -12.17,31.5 -3.75,10.55 -7.1,21.31 -10.04,32.26l2.59 0.46c2.73,-3.65 5.37,-7.61 7.91,-11.87 2.53,-4.26 4.74,-8.73 6.62,-13.39 1.87,-4.67 3.4,-9.38 4.56,-14.15 1.17,-4.77 1.75,-9.44 1.75,-14zm22.67 -1.37c0,2.23 -0.05,4.51 -0.15,6.85 -0.1,2.33 -0.4,4.61 -0.91,6.84 -3.25,15.32 -9.13,29.37 -17.65,42.15 -0.81,1.12 -1.62,2.31 -2.44,3.58 -0.81,1.27 -1.67,2.41 -2.58,3.42 -0.21,0.21 -0.61,0.41 -1.22,0.61 -0.61,0.2 -1.07,0.26 -1.37,0.15l-20.39 -4.26c0,0.51 0,0.99 0,1.45 0,0.45 -0.05,0.94 -0.15,1.44 -0.1,0.92 -0.2,1.37 -0.31,1.37l-20.39 -4.26c-0.5,-0.1 -0.86,-0.35 -1.06,-0.76 -0.2,-0.4 -0.31,-0.81 -0.31,-1.22 0,-0.1 0.03,-0.2 0.08,-0.3 0.05,-0.1 0.08,-0.2 0.08,-0.3l13.54 -64.98 -0.3 0 -11.72 32.72c-0.21,0.71 -0.63,1.21 -1.29,1.52 -0.66,0.3 -1.35,0.46 -2.06,0.46 -0.51,0 -0.94,-0.16 -1.29,-0.46 -0.36,-0.31 -0.53,-0.71 -0.53,-1.22 0,-0.41 0.05,-0.71 0.15,-0.91 2.84,-7.91 5.68,-15.78 8.52,-23.59 2.84,-7.81 5.73,-15.67 8.67,-23.58l5.63 -15.52c0.41,-1.02 0.81,-2.03 1.22,-3.05 0.41,-1.01 0.76,-2.08 1.06,-3.19 0.21,-0.71 0.28,-1.62 0.23,-2.74 -0.05,-1.12 0,-2.18 0.15,-3.2 0.16,-1.01 0.46,-1.87 0.92,-2.58 0.45,-0.71 1.24,-1.07 2.36,-1.07 0.3,0 1.31,0.18 3.04,0.53 1.72,0.36 3.63,0.77 5.71,1.22 2.08,0.46 4.05,0.92 5.93,1.37 1.88,0.46 3.07,0.74 3.57,0.84 0.92,0.2 1.37,0.81 1.37,1.82 0,0.21 -0.02,0.33 -0.07,0.38 -0.05,0.05 -0.08,0.18 -0.08,0.39l-12.32 56.75 0.3 0c0.91,-2.43 1.85,-4.89 2.82,-7.38 0.96,-2.48 1.95,-4.94 2.96,-7.38 0.51,-1.11 0.92,-2.2 1.22,-3.27 0.31,-1.06 0.71,-2.15 1.22,-3.27 0.1,-0.2 0.25,-0.53 0.46,-0.99 0.2,-0.46 0.45,-0.94 0.76,-1.45 0.3,-0.5 0.63,-0.93 0.99,-1.29 0.35,-0.35 0.63,-0.53 0.83,-0.53l21 4.56c0.91,0.21 1.62,0.84 2.13,1.91 0.51,1.06 0.89,2.25 1.14,3.57 0.26,1.32 0.41,2.61 0.46,3.88 0.05,1.27 0.07,2.26 0.07,2.97zm43.07 -48.08c0,0.71 -0.08,1.26 -0.23,1.67 -0.15,0.41 -0.33,0.96 -0.53,1.67l-0.77 3.65 -3.49 15.98c-1.93,8.83 -3.81,17.55 -5.63,26.17 -1.83,8.63 -3.66,17.35 -5.48,26.18 -1.52,7.3 -3.07,14.58 -4.64,21.83 -1.58,7.25 -3.07,14.53 -4.49,21.84l-2.59 13.08c-0.3,1.42 -0.56,2.79 -0.76,4.11 -0.2,1.32 -0.51,2.64 -0.91,3.96 -0.21,0.61 -0.59,1.06 -1.14,1.37 -0.56,0.3 -1.09,0.45 -1.6,0.45 -0.31,0 -1.35,-0.17 -3.12,-0.53 -1.78,-0.35 -3.7,-0.76 -5.78,-1.22 -2.08,-0.45 -4.06,-0.91 -5.94,-1.37 -1.87,-0.45 -3.07,-0.73 -3.57,-0.83 -0.61,-0.21 -1.02,-0.56 -1.22,-1.07 -0.2,-0.5 -0.25,-1.01 -0.15,-1.52l20.08 -95.56 -0.3 0 -11.72 32.72c-0.2,0.71 -0.63,1.21 -1.29,1.52 -0.66,0.3 -1.35,0.46 -2.06,0.46 -0.5,0 -0.93,-0.16 -1.29,-0.46 -0.35,-0.31 -0.53,-0.71 -0.53,-1.22 0,-0.41 0.05,-0.71 0.15,-0.91 3.15,-8.73 6.44,-17.3 9.89,-25.72 3.45,-8.42 6.65,-17.04 9.59,-25.87 1.01,-2.94 1.95,-5.85 2.81,-8.74 0.87,-2.9 1.65,-5.81 2.36,-8.75 0.31,-1.22 0.56,-2.49 0.76,-3.81 0.21,-1.32 0.46,-2.59 0.76,-3.8 0.31,-1.22 1.12,-1.83 2.44,-1.83l0.3 0 18.26 3.96c1.22,0.3 1.83,1.17 1.83,2.59zm33.02 70.14c0,0.41 -0.06,0.71 -0.16,0.92l-13.23 36.51c-0.21,0.41 -0.54,1.25 -0.99,2.51 -0.46,1.27 -0.94,1.91 -1.45,1.91 -0.2,0 -1.44,-0.23 -3.73,-0.69 -2.28,-0.45 -4.79,-0.99 -7.53,-1.59 -2.74,-0.61 -5.33,-1.17 -7.76,-1.68 -2.43,-0.51 -3.9,-0.81 -4.41,-0.91 -0.61,-0.21 -1.12,-0.56 -1.52,-1.07 -0.41,-0.5 -0.51,-1.06 -0.31,-1.67l14.46 -64.67 -0.31 0 -11.87 32.87c-0.2,0.71 -0.63,1.21 -1.29,1.52 -0.66,0.3 -1.34,0.46 -2.05,0.46 -0.51,0 -0.94,-0.16 -1.3,-0.46 -0.35,-0.31 -0.53,-0.71 -0.53,-1.22 0,-0.41 0.05,-0.71 0.15,-0.91l13.24 -36.52c0.1,-0.2 0.23,-0.56 0.38,-1.06 0.15,-0.51 0.33,-1.02 0.53,-1.53 0.21,-0.5 0.43,-0.94 0.69,-1.29 0.25,-0.36 0.53,-0.53 0.84,-0.53 0.2,0 1.44,0.23 3.72,0.68 2.29,0.46 4.8,0.99 7.54,1.6 2.73,0.61 5.3,1.17 7.68,1.67 2.38,0.51 3.88,0.81 4.49,0.92 1.22,0.2 1.83,0.96 1.83,2.28 0,0.2 -0.06,0.35 -0.16,0.45l-14.3 64.67 0.3 0 11.87 -32.86c0.21,-0.71 0.64,-1.22 1.3,-1.52 0.65,-0.31 1.34,-0.46 2.05,-0.46 0.51,0 0.94,0.15 1.29,0.46 0.36,0.3 0.54,0.71 0.54,1.21zm6.39 -60.25c0,2.33 -0.43,4.51 -1.3,6.54 -0.86,2.03 -2.05,3.8 -3.57,5.32 -1.52,1.53 -3.3,2.72 -5.33,3.58 -2.03,0.86 -4.21,1.29 -6.54,1.29 -2.33,0 -4.52,-0.43 -6.54,-1.29 -2.03,-0.86 -3.81,-2.05 -5.33,-3.58 -1.52,-1.52 -2.74,-3.29 -3.65,-5.32 -0.91,-2.03 -1.37,-4.21 -1.37,-6.54 0,-2.34 0.46,-4.52 1.37,-6.55 0.91,-2.03 2.13,-3.8 3.65,-5.32 1.52,-1.53 3.3,-2.72 5.33,-3.58 2.02,-0.86 4.21,-1.29 6.54,-1.29 2.33,0 4.51,0.43 6.54,1.29 2.03,0.86 3.81,2.05 5.33,3.58 1.52,1.52 2.71,3.29 3.57,5.32 0.87,2.03 1.3,4.21 1.3,6.55zm35.45 28.15c0,0.2 -0.05,0.35 -0.15,0.45 -0.2,1.52 -1.02,2.29 -2.44,2.29 -0.61,0 -1.21,-0.08 -1.82,-0.23 -0.61,-0.16 -1.22,-0.28 -1.83,-0.38 -2.43,3.34 -4.72,6.92 -6.85,10.72 -2.13,3.81 -4,7.76 -5.63,11.87 -1.62,4.11 -2.91,8.3 -3.88,12.56 -0.96,4.26 -1.44,8.47 -1.44,12.63 0,5.68 0.91,11.15 2.74,16.43l1.98 0c1.52,-3.86 3.01,-7.68 4.48,-11.49 1.48,-3.8 2.92,-7.63 4.34,-11.49 0.31,-0.71 0.61,-1.57 0.91,-2.58 0.31,-1.02 0.64,-2.03 0.99,-3.05 0.36,-1.01 0.71,-2 1.07,-2.96 0.35,-0.97 0.68,-1.75 0.99,-2.36 0.61,-1.32 1.67,-1.98 3.19,-1.98 1.22,0 1.83,0.56 1.83,1.67 0,0.31 -0.31,1.35 -0.91,3.12 -0.61,1.78 -1.37,3.93 -2.29,6.47 -0.91,2.53 -1.92,5.27 -3.04,8.22 -1.12,2.94 -2.18,5.75 -3.2,8.44 -1.01,2.69 -1.9,5.05 -2.66,7.08 -0.76,2.02 -1.29,3.39 -1.6,4.1 -0.1,0.21 -0.25,0.56 -0.45,1.07 -0.21,0.51 -0.43,1.01 -0.69,1.52 -0.25,0.51 -0.5,0.94 -0.76,1.29 -0.25,0.36 -0.53,0.54 -0.83,0.54l-22.98 -4.87c-0.2,0 -0.51,-0.18 -0.91,-0.53 -0.41,-0.36 -0.66,-0.64 -0.77,-0.84 -0.6,-1.12 -1.19,-2.46 -1.75,-4.03 -0.55,-1.58 -1.01,-3.22 -1.36,-4.95 -0.36,-1.72 -0.66,-3.42 -0.92,-5.1 -0.25,-1.67 -0.38,-3.17 -0.38,-4.49 0,-1.92 0.13,-3.82 0.38,-5.7 0.26,-1.88 0.59,-3.78 0.99,-5.71 0.2,-1.11 0.74,-3.01 1.6,-5.7 0.86,-2.69 1.88,-5.68 3.04,-8.98 1.17,-3.3 2.46,-6.72 3.88,-10.27 1.42,-3.55 2.87,-6.8 4.34,-9.74 1.47,-2.94 2.91,-5.35 4.34,-7.23 1.42,-1.87 2.68,-2.81 3.8,-2.81l0.3 0 22.52 4.87c0.51,0.1 0.94,0.35 1.3,0.76 0.35,0.4 0.53,0.86 0.53,1.37zm36.67 32.1c0,0.41 -0.05,0.71 -0.15,0.92l-13.24 36.51c-0.2,0.41 -0.53,1.25 -0.99,2.51 -0.45,1.27 -0.94,1.91 -1.44,1.91 -0.21,0 -1.45,-0.23 -3.73,-0.69 -2.28,-0.45 -4.79,-0.99 -7.53,-1.59 -2.74,-0.61 -5.33,-1.17 -7.76,-1.68 -2.44,-0.51 -3.91,-0.81 -4.42,-0.91 -0.6,-0.21 -1.11,-0.56 -1.52,-1.07 -0.4,-0.5 -0.51,-1.06 -0.3,-1.67l14.45 -64.67 -0.3 0 -11.87 32.87c-0.2,0.71 -0.63,1.21 -1.29,1.52 -0.66,0.3 -1.35,0.46 -2.06,0.46 -0.51,0 -0.93,-0.16 -1.29,-0.46 -0.36,-0.31 -0.53,-0.71 -0.53,-1.22 0,-0.41 0.05,-0.71 0.15,-0.91l13.24 -36.52c0.1,-0.2 0.22,-0.56 0.38,-1.06 0.15,-0.51 0.33,-1.02 0.53,-1.53 0.2,-0.5 0.43,-0.94 0.68,-1.29 0.26,-0.36 0.54,-0.53 0.84,-0.53 0.2,0 1.45,0.23 3.73,0.68 2.28,0.46 4.79,0.99 7.53,1.6 2.74,0.61 5.3,1.17 7.69,1.67 2.38,0.51 3.88,0.81 4.49,0.92 1.21,0.2 1.82,0.96 1.82,2.28 0,0.2 -0.05,0.35 -0.15,0.45l-14.31 64.67 0.31 0 11.87 -32.86c0.2,-0.71 0.63,-1.22 1.29,-1.52 0.66,-0.31 1.35,-0.46 2.06,-0.46 0.5,0 0.94,0.15 1.29,0.46 0.36,0.3 0.53,0.71 0.53,1.21zm6.39 -60.25c0,2.33 -0.43,4.51 -1.29,6.54 -0.86,2.03 -2.05,3.8 -3.58,5.32 -1.52,1.53 -3.29,2.72 -5.32,3.58 -2.03,0.86 -4.21,1.29 -6.55,1.29 -2.33,0 -4.51,-0.43 -6.54,-1.29 -2.03,-0.86 -3.8,-2.05 -5.32,-3.58 -1.53,-1.52 -2.74,-3.29 -3.66,-5.32 -0.91,-2.03 -1.37,-4.21 -1.37,-6.54 0,-2.34 0.46,-4.52 1.37,-6.55 0.92,-2.03 2.13,-3.8 3.66,-5.32 1.52,-1.53 3.29,-2.72 5.32,-3.58 2.03,-0.86 4.21,-1.29 6.54,-1.29 2.34,0 4.52,0.43 6.55,1.29 2.03,0.86 3.8,2.05 5.32,3.58 1.53,1.52 2.72,3.29 3.58,5.32 0.86,2.03 1.29,4.21 1.29,6.55zm31.04 30.28c-2.74,3.65 -5.35,7.6 -7.83,11.87 -2.49,4.26 -4.7,8.67 -6.62,13.23 -1.93,4.57 -3.45,9.21 -4.57,13.93 -1.11,4.71 -1.67,9.4 -1.67,14.07 0,1.83 0.05,3.68 0.15,5.56 0.1,1.87 0.31,3.72 0.61,5.55l0.3 0c4.47,-10.45 8.58,-20.95 12.33,-31.5 3.75,-10.55 7.05,-21.3 9.89,-32.26l-2.59 -0.45zm11.72 63.14l0.3 0 11.87 -32.86c0.21,-0.71 0.61,-1.22 1.22,-1.52 0.61,-0.31 1.27,-0.46 1.98,-0.46 1.22,0 1.82,0.56 1.82,1.67 0,0.21 -0.3,1.19 -0.91,2.97 -0.61,1.77 -1.37,3.96 -2.28,6.54 -0.91,2.59 -1.9,5.38 -2.97,8.37 -1.06,2.99 -2.1,5.83 -3.12,8.52 -1.01,2.69 -1.87,5.05 -2.58,7.08 -0.71,2.03 -1.17,3.35 -1.37,3.95 -0.11,0.21 -0.26,0.56 -0.46,1.07 -0.2,0.51 -0.46,1.04 -0.76,1.6 -0.31,0.55 -0.61,1.01 -0.91,1.37 -0.31,0.35 -0.61,0.48 -0.92,0.38l-22.67 -4.87c-0.91,-0.1 -1.37,-0.71 -1.37,-1.83 0,-0.3 0.2,-1.37 0.61,-3.19 0.41,-1.83 0.86,-3.81 1.37,-5.94 0.51,-2.13 0.99,-4.16 1.44,-6.08 0.46,-1.93 0.79,-3.2 0.99,-3.81l-0.3 0c-1.42,3.55 -2.81,7.1 -4.18,10.65 -1.37,3.55 -2.77,7.1 -4.19,10.65 -0.3,0.82 -0.79,1.68 -1.45,2.59 -0.65,0.92 -1.49,1.37 -2.51,1.37 -0.3,0 -1.42,-0.2 -3.34,-0.61 -1.93,-0.4 -4.04,-0.84 -6.32,-1.29 -2.28,-0.46 -4.46,-0.91 -6.54,-1.37 -2.08,-0.46 -3.42,-0.79 -4.03,-0.99 -0.92,-0.2 -1.63,-0.78 -2.13,-1.75 -0.51,-0.96 -0.89,-2.08 -1.14,-3.35 -0.26,-1.27 -0.41,-2.51 -0.46,-3.73 -0.05,-1.21 -0.08,-2.18 -0.08,-2.89 0,-2.33 0.1,-4.71 0.31,-7.15 0.2,-2.43 0.55,-4.82 1.06,-7.15 1.73,-7.61 4.06,-14.94 7,-21.99 2.94,-7.05 6.49,-13.82 10.65,-20.31 0.82,-1.12 1.6,-2.28 2.36,-3.5 0.76,-1.22 1.6,-2.38 2.51,-3.5 0.2,-0.2 0.59,-0.41 1.14,-0.61 0.56,-0.2 0.99,-0.25 1.3,-0.15l21 4.56 7.45 -40.62c0.1,-0.61 0.41,-1.04 0.91,-1.3 0.51,-0.25 1.02,-0.38 1.53,-0.38 0.3,0 1.34,0.18 3.12,0.53 1.77,0.36 3.72,0.77 5.85,1.22 2.13,0.46 4.14,0.92 6.01,1.37 1.88,0.46 3.12,0.74 3.73,0.84 0.51,0.2 0.99,0.56 1.45,1.06 0.45,0.51 0.58,1.02 0.38,1.53l-22.37 103.31zm48.54 -38.04c-4.26,3.25 -7.76,7.38 -10.5,12.4 -2.74,5.03 -4.11,10.22 -4.11,15.6 0,1.83 0.03,3.68 0.08,5.56 0.05,1.87 0.28,3.72 0.68,5.55l0.31 0c2.84,-6.39 5.63,-12.78 8.37,-19.17 2.74,-6.39 5.37,-12.89 7.91,-19.48l-2.74 -0.46zm35 4.87c0,0.21 -0.31,1.19 -0.91,2.97 -0.61,1.77 -1.37,3.96 -2.29,6.54 -0.91,2.59 -1.9,5.38 -2.96,8.37 -1.07,2.99 -2.11,5.83 -3.12,8.52 -1.02,2.69 -1.88,5.05 -2.59,7.08 -0.71,2.03 -1.17,3.35 -1.37,3.95 -0.1,0.21 -0.28,0.56 -0.53,1.07 -0.26,0.51 -0.54,1.04 -0.84,1.6 -0.3,0.55 -0.61,1.01 -0.91,1.37 -0.31,0.35 -0.61,0.48 -0.92,0.38l-22.52 -4.87c-0.91,-0.1 -1.37,-0.71 -1.37,-1.83 0,-0.4 0.21,-1.47 0.61,-3.19 0.41,-1.73 0.84,-3.6 1.3,-5.63 0.45,-2.03 0.91,-3.96 1.37,-5.79 0.45,-1.82 0.78,-3.04 0.99,-3.65l-0.31 0c-1.42,3.45 -2.81,6.87 -4.18,10.27 -1.37,3.4 -2.77,6.83 -4.19,10.27 -0.1,0.21 -0.28,0.56 -0.53,1.07 -0.25,0.51 -0.53,1.01 -0.84,1.52 -0.3,0.51 -0.61,0.94 -0.91,1.29 -0.31,0.36 -0.61,0.49 -0.91,0.39l-20.39 -4.57c-0.92,-0.2 -1.65,-0.84 -2.21,-1.9 -0.56,-1.07 -0.96,-2.26 -1.22,-3.58 -0.25,-1.32 -0.43,-2.64 -0.53,-3.95 -0.1,-1.32 -0.15,-2.34 -0.15,-3.05 0,-3.45 0.43,-6.92 1.29,-10.42 0.86,-3.5 2.11,-6.87 3.73,-10.12 1.62,-3.25 3.53,-6.31 5.71,-9.2 2.18,-2.9 4.59,-5.46 7.22,-7.69 0.21,-0.2 0.61,-0.41 1.22,-0.61 0.61,-0.2 1.02,-0.25 1.22,-0.15l20.69 4.26 4.87 -21.91 -21 -4.11c-0.5,-0.1 -0.86,-0.33 -1.06,-0.68 -0.21,-0.36 -0.31,-0.79 -0.31,-1.3 0,-0.81 0.26,-1.52 0.76,-2.13 0.51,-0.61 1.22,-0.91 2.13,-0.91l0.46 0 40.78 7.91c1.02,0.2 1.52,0.81 1.52,1.83l0 0.3c0,0.1 -0.33,1.63 -0.99,4.57 -0.66,2.94 -1.49,6.62 -2.51,11.03 -1.01,4.41 -2.1,9.25 -3.27,14.53 -1.17,5.28 -2.26,10.27 -3.27,14.99 -1.02,4.72 -1.88,8.77 -2.59,12.17 -0.71,3.4 -1.16,5.45 -1.37,6.16l0.31 0 11.87 -32.86c0.2,-0.71 0.6,-1.22 1.21,-1.52 0.61,-0.31 1.27,-0.46 1.98,-0.46 1.22,0 1.83,0.56 1.83,1.67zm37.43 -29.97c-2.74,3.65 -5.35,7.6 -7.84,11.87 -2.48,4.26 -4.69,8.67 -6.61,13.23 -1.93,4.57 -3.45,9.21 -4.57,13.93 -1.12,4.71 -1.67,9.4 -1.67,14.07 0,1.83 0.05,3.68 0.15,5.56 0.1,1.87 0.3,3.72 0.61,5.55l0.3 0c4.47,-10.45 8.57,-20.95 12.33,-31.5 3.75,-10.55 7.05,-21.3 9.89,-32.26l-2.59 -0.45zm11.72 63.14l0.3 0 11.87 -32.86c0.2,-0.71 0.61,-1.22 1.22,-1.52 0.61,-0.31 1.27,-0.46 1.98,-0.46 1.21,0 1.82,0.56 1.82,1.67 0,0.21 -0.3,1.19 -0.91,2.97 -0.61,1.77 -1.37,3.96 -2.28,6.54 -0.92,2.59 -1.91,5.38 -2.97,8.37 -1.07,2.99 -2.11,5.83 -3.12,8.52 -1.01,2.69 -1.88,5.05 -2.59,7.08 -0.71,2.03 -1.16,3.35 -1.37,3.95 -0.1,0.21 -0.25,0.56 -0.45,1.07 -0.21,0.51 -0.46,1.04 -0.76,1.6 -0.31,0.55 -0.61,1.01 -0.92,1.37 -0.3,0.35 -0.61,0.48 -0.91,0.38l-22.67 -4.87c-0.92,-0.1 -1.37,-0.71 -1.37,-1.83 0,-0.3 0.2,-1.37 0.61,-3.19 0.4,-1.83 0.86,-3.81 1.37,-5.94 0.5,-2.13 0.99,-4.16 1.44,-6.08 0.46,-1.93 0.79,-3.2 0.99,-3.81l-0.3 0c-1.42,3.55 -2.82,7.1 -4.19,10.65 -1.37,3.55 -2.76,7.1 -4.18,10.65 -0.31,0.82 -0.79,1.68 -1.45,2.59 -0.66,0.92 -1.49,1.37 -2.51,1.37 -0.3,0 -1.42,-0.2 -3.35,-0.61 -1.92,-0.4 -4.03,-0.84 -6.31,-1.29 -2.28,-0.46 -4.46,-0.91 -6.54,-1.37 -2.08,-0.46 -3.43,-0.79 -4.04,-0.99 -0.91,-0.2 -1.62,-0.78 -2.13,-1.75 -0.5,-0.96 -0.88,-2.08 -1.14,-3.35 -0.25,-1.27 -0.4,-2.51 -0.45,-3.73 -0.05,-1.21 -0.08,-2.18 -0.08,-2.89 0,-2.33 0.1,-4.71 0.3,-7.15 0.21,-2.43 0.56,-4.82 1.07,-7.15 1.72,-7.61 4.06,-14.94 7,-21.99 2.94,-7.05 6.49,-13.82 10.65,-20.31 0.81,-1.12 1.6,-2.28 2.36,-3.5 0.76,-1.22 1.6,-2.38 2.51,-3.5 0.2,-0.2 0.58,-0.41 1.14,-0.61 0.56,-0.2 0.99,-0.25 1.29,-0.15l21 4.56 7.46 -40.62c0.1,-0.61 0.41,-1.04 0.91,-1.3 0.51,-0.25 1.02,-0.38 1.52,-0.38 0.31,0 1.35,0.18 3.12,0.53 1.78,0.36 3.73,0.77 5.86,1.22 2.13,0.46 4.13,0.92 6.01,1.37 1.88,0.46 3.12,0.74 3.73,0.84 0.51,0.2 0.99,0.56 1.45,1.06 0.45,0.51 0.58,1.02 0.38,1.53l-22.37 103.31z"/>
   </g>
   <g>
    <path class="fil2" d="M761.95 185.18c-17.96,-1.89 -42.67,-5.96 -76.38,-13.92 -21.01,-4.96 -35.35,-8.04 -48.6,-6.64 -19.05,10.45 32.09,22.8 77.32,64.25l1.65 1.19c0,0 50.63,12.98 59.91,13.86 0.58,0.01 1.14,0.01 1.7,0l0.74 -0.01c26.43,-0.62 21.72,-21.56 -16.34,-58.73zm-126.29 -20.4l-1.18 0.16 -0.02 0.02c0.46,-0.07 0.86,-0.13 1.2,-0.18z"/>
    <path class="fil3" d="M642.03 0c0,0 -48.01,54.19 47.22,124.87 102.12,75.79 128.58,119.92 86.6,119.05 0,0 58.85,14.47 67.99,-41.87 5.38,-33.2 -16.42,-53.13 -43.66,-75.65 0,0 -94.35,-67.37 -158.15,-126.4z"/>
    <path class="fil4" d="M692.18 288.15c2.79,5.11 29.07,56.98 -27.4,98.63 -0.59,0.44 -0.13,1.37 0.58,1.14 9.44,-3.08 24.55,-9.76 36.76,-16.53 22.77,-32.8 11.78,-59.75 -9.94,-83.24z"/>
    <path class="fil5" d="M599.73 193.77c2.02,-25.89 37.25,-29.16 37.25,-29.16 -21.19,11.6 44.15,25.53 91.9,78.99 33.88,37.93 20.39,76.75 20.39,76.75l-0.09 0.05c-10.59,35.5 -47.06,50.99 -47.06,50.99 58.52,-84.3 -105.91,-129.9 -102.39,-177.62z"/>
   </g>
  </g>
 </g>
</svg>
